<?xml version="1.0" encoding="UTF-8" standalone="no"?>
<svg width="1024" height="1024" viewBox="0 0 1024 1024" fill="none" xmlns="http://www.w3.org/2000/svg">
  <rect width="1024" height="1024" fill="#3B82F6"/>
  <circle cx="512" cy="512" r="350" fill="white"/>
  <path d="M350 512C350 420.467 394.533 338.4 467.2 288L512 400C476.267 425.333 456 466.667 456 512C456 557.333 476.267 598.667 512 624L467.2 736C394.533 685.6 350 603.533 350 512Z" fill="#3B82F6"/>
  <path d="M512 624C547.733 598.667 568 557.333 568 512C568 466.667 547.733 425.333 512 400L556.8 288C629.467 338.4 674 420.467 674 512C674 603.533 629.467 685.6 556.8 736L512 624Z" fill="#3B82F6"/>
  <circle cx="512" cy="288" r="40" fill="#3B82F6"/>
  <circle cx="512" cy="736" r="40" fill="#3B82F6"/>
</svg>